<?xml version="1.0" encoding="iso-8859-1"?>
<!-- Uploaded to: SVG Repo, www.svgrepo.com, Generator: SVG Repo Mixer Tools -->
<svg height="800px" width="800px" version="1.1" id="Layer_1" xmlns="http://www.w3.org/2000/svg" xmlns:xlink="http://www.w3.org/1999/xlink" 
	 viewBox="0 0 512 512" xml:space="preserve">
<circle style="fill:#FFA9CA;" cx="256" cy="256" r="256"/>
<path style="fill:#FF80AA;" d="M401.027,159.713l-29.911-1.448l-27.755-27.755l-36.719,10.723l0.074,0.074h-48.854v66.879
	l-66.879-66.879l-6.892,12.826l-23.237-24.809l-20.304-5.618l-19.92,19.921l5.154,21.395l34.118,34.118l-1.391,2.589l-27.551-26.298
	l-29.313,13.134l-4.551,23.716l117.531,116.56v13.253h-38.109l-21.078-21.078l-30.729,8.916l-4.499,26.314l155.034,155.034
	c127.69-9.492,229.29-112.647,236.351-240.999L401.027,159.713z"/>
<g>
	<path style="fill:#F4E3C3;" d="M257.862,276.432c4.482,0,8.116-3.634,8.116-8.116V154.695h34.107
		c3.589,9.469,12.729,16.232,23.442,16.232c13.833,0,25.085-11.254,25.085-25.086s-11.254-25.085-25.085-25.085
		c-11.266,0-20.816,7.465-23.974,17.706h-41.691c-4.482,0-8.116,3.634-8.116,8.116v121.737
		C249.746,272.798,253.38,276.432,257.862,276.432z M323.525,136.987c4.882,0,8.854,3.972,8.854,8.854
		c0,4.882-3.972,8.854-8.854,8.854c-4.882,0-8.854-3.972-8.854-8.854C314.671,140.959,318.643,136.987,323.525,136.987z"/>
	<path style="fill:#F4E3C3;" d="M138.169,203.388h38.534v16.232c0,4.482,3.634,8.116,8.116,8.116c4.482,0,8.116-3.634,8.116-8.116
		v-73.042c0-4.482-3.634-8.116-8.116-8.116h-18.342c-3.384-9.856-12.722-16.97-23.712-16.97c-13.833,0-25.085,11.254-25.085,25.086
		c0,13.833,11.254,25.085,25.085,25.085c10.99,0,20.328-7.113,23.712-16.97h10.226v32.463h-38.002
		c-3.158-10.242-12.709-17.708-23.974-17.708c-13.833,0-25.085,11.254-25.085,25.086s11.254,25.085,25.085,25.085
		C125.44,219.62,134.58,212.859,138.169,203.388z M142.764,155.433c-4.882,0-8.854-3.972-8.854-8.854
		c0-4.882,3.972-8.854,8.854-8.854c4.882,0,8.854,3.972,8.854,8.854C151.618,151.461,147.646,155.433,142.764,155.433z
		 M105.874,194.536c0-4.882,3.972-8.854,8.854-8.854s8.854,3.972,8.854,8.854c0,4.882-3.972,8.854-8.854,8.854
		S105.874,199.418,105.874,194.536z"/>
	<path style="fill:#F4E3C3;" d="M250.484,342.095c-10.437,0-19.396,6.409-23.171,15.494h-10.03v-89.274
		c0-4.482-3.634-8.116-8.116-8.116c-4.482,0-8.116,3.634-8.116,8.116v64.927h-37.262c-3.158-10.242-12.709-17.708-23.974-17.708
		c-13.833,0-25.085,11.254-25.085,25.086c0,13.833,11.254,25.085,25.085,25.085c10.712,0,19.852-6.761,23.442-16.232h37.797v16.232
		c0,4.482,3.634,8.116,8.116,8.116h17.153c2.922,10.614,12.634,18.444,24.164,18.444c13.833,0,25.085-11.254,25.085-25.085
		C275.568,353.349,264.316,342.095,250.484,342.095z M139.812,349.474c-4.882,0-8.854-3.972-8.854-8.854s3.972-8.854,8.854-8.854
		s8.854,3.972,8.854,8.854S144.694,349.474,139.812,349.474z M250.484,376.036c-4.882,0-8.854-3.972-8.854-8.854
		c0-4.882,3.972-8.854,8.854-8.854c4.882,0,8.854,3.972,8.854,8.854C259.337,372.064,255.366,376.036,250.484,376.036z"/>
</g>
<g>
	<path style="fill:#FED8B2;" d="M371.483,197.318v38.534h-40.579c-4.482,0-8.116,3.634-8.116,8.116c0,4.482,3.634,8.116,8.116,8.116
		h48.695c4.482,0,8.116-3.634,8.116-8.116v-46.116c10.242-3.158,17.708-12.709,17.708-23.974c0-13.833-11.254-25.086-25.085-25.086
		c-13.833,0-25.085,11.254-25.085,25.086C355.252,184.589,362.013,193.729,371.483,197.318z M380.337,165.023
		c4.882,0,8.854,3.972,8.854,8.854c0,4.882-3.972,8.854-8.854,8.854c-4.882,0-8.854-3.972-8.854-8.854
		C371.483,168.994,375.455,165.023,380.337,165.023z"/>
	<path style="fill:#FED8B2;" d="M423.129,315.535c-11.266,0-20.816,7.465-23.974,17.708h-84.482v-40.579
		c0-4.482-3.634-8.116-8.116-8.116c-4.482,0-8.116,3.634-8.116,8.116v97.39c0,4.482,3.634,8.116,8.116,8.116h40.994
		c2.1,11.724,12.35,20.658,24.671,20.658c13.833,0,25.085-11.254,25.085-25.085c0-13.833-11.254-25.086-25.085-25.086
		c-9.566,0-17.892,5.385-22.123,13.281h-35.426v-32.463h85.016c3.589,9.469,12.729,16.232,23.442,16.232
		c13.833,0,25.085-11.252,25.085-25.085C448.215,326.79,436.962,315.535,423.129,315.535z M372.221,384.888
		c4.882,0,8.854,3.972,8.854,8.854c0,4.882-3.972,8.854-8.854,8.854s-8.854-3.972-8.854-8.854
		C363.367,388.86,367.338,384.888,372.221,384.888z M423.129,349.474c-4.882,0-8.854-3.972-8.854-8.854s3.972-8.854,8.854-8.854
		c4.882,0,8.854,3.972,8.854,8.854S428.011,349.474,423.129,349.474z"/>
	<path style="fill:#FED8B2;" d="M323.525,120.754c-11.266,0-20.816,7.465-23.974,17.706h-41.689c-0.047,0-0.091,0.014-0.138,0.014
		v137.942c0.047,0,0.091,0.014,0.138,0.014c4.482,0,8.116-3.634,8.116-8.116V154.695h34.107
		c3.589,9.469,12.729,16.232,23.442,16.232c13.833,0,25.085-11.254,25.085-25.086C348.612,132.008,337.358,120.754,323.525,120.754z
		 M323.525,154.695c-4.882,0-8.854-3.972-8.854-8.854c0-4.882,3.972-8.854,8.854-8.854c4.882,0,8.854,3.972,8.854,8.854
		C332.379,150.723,328.407,154.695,323.525,154.695z"/>
	<path style="fill:#FED8B2;" d="M275.568,367.182c0-11.314-7.533-20.895-17.846-24.011v18.944c1.01,1.438,1.614,3.181,1.614,5.067
		c0,1.886-0.603,3.629-1.614,5.067v18.942C268.035,388.075,275.568,378.496,275.568,367.182z"/>
</g>
<path style="fill:#D83E20;" d="M163.423,242.345c0-26.079,21.14-47.219,47.219-47.219s47.22,21.14,47.22,47.219
	c0-26.079,21.14-47.219,47.22-47.219s47.22,21.14,47.22,47.219c0,45.153-94.439,99.161-94.439,99.161
	S163.423,290.042,163.423,242.345z"/>
<path style="fill:#C1321F;" d="M305.081,195.125c-26.079,0-47.22,21.14-47.22,47.22c0-1.157-0.057-2.3-0.138-3.434V341.43
	c0.081,0.045,0.138,0.076,0.138,0.076s94.439-54.008,94.439-99.161C352.301,216.266,331.159,195.125,305.081,195.125z"/>
</svg>